%TF.GenerationSoftware,KiCad,Pcbnew,(6.0.7-1)-1*%
%TF.CreationDate,2022-10-11T16:14:11-05:00*%
%TF.ProjectId,Refill_Dispensary,52656669-6c6c-45f4-9469-7370656e7361,rev?*%
%TF.SameCoordinates,Original*%
%TF.FileFunction,Soldermask,Top*%
%TF.FilePolarity,Negative*%
%FSLAX46Y46*%
G04 Gerber Fmt 4.6, Leading zero omitted, Abs format (unit mm)*
G04 Created by KiCad (PCBNEW (6.0.7-1)-1) date 2022-10-11 16:14:11*
%MOMM*%
%LPD*%
G01*
G04 APERTURE LIST*
G04 Aperture macros list*
%AMRoundRect*
0 Rectangle with rounded corners*
0 $1 Rounding radius*
0 $2 $3 $4 $5 $6 $7 $8 $9 X,Y pos of 4 corners*
0 Add a 4 corners polygon primitive as box body*
4,1,4,$2,$3,$4,$5,$6,$7,$8,$9,$2,$3,0*
0 Add four circle primitives for the rounded corners*
1,1,$1+$1,$2,$3*
1,1,$1+$1,$4,$5*
1,1,$1+$1,$6,$7*
1,1,$1+$1,$8,$9*
0 Add four rect primitives between the rounded corners*
20,1,$1+$1,$2,$3,$4,$5,0*
20,1,$1+$1,$4,$5,$6,$7,0*
20,1,$1+$1,$6,$7,$8,$9,0*
20,1,$1+$1,$8,$9,$2,$3,0*%
G04 Aperture macros list end*
%ADD10R,7.175000X5.600000*%
%ADD11R,2.800000X2.800000*%
%ADD12O,2.800000X2.800000*%
%ADD13RoundRect,0.140000X-0.170000X0.140000X-0.170000X-0.140000X0.170000X-0.140000X0.170000X0.140000X0*%
%ADD14C,2.500000*%
%ADD15R,1.600000X1.600000*%
%ADD16C,1.600000*%
%ADD17O,1.800000X2.700000*%
%ADD18RoundRect,0.100000X0.130000X0.100000X-0.130000X0.100000X-0.130000X-0.100000X0.130000X-0.100000X0*%
%ADD19RoundRect,0.100000X-0.130000X-0.100000X0.130000X-0.100000X0.130000X0.100000X-0.130000X0.100000X0*%
%ADD20RoundRect,0.381000X0.381000X-0.381000X0.381000X0.381000X-0.381000X0.381000X-0.381000X-0.381000X0*%
%ADD21C,1.524000*%
%ADD22C,1.200000*%
%ADD23RoundRect,0.250000X0.725000X-0.600000X0.725000X0.600000X-0.725000X0.600000X-0.725000X-0.600000X0*%
%ADD24O,1.950000X1.700000*%
%ADD25R,4.600000X2.000000*%
%ADD26O,4.200000X2.000000*%
%ADD27O,2.000000X4.200000*%
%ADD28C,1.000000*%
%ADD29C,4.000000*%
%ADD30RoundRect,0.100000X-0.100000X0.130000X-0.100000X-0.130000X0.100000X-0.130000X0.100000X0.130000X0*%
%ADD31R,3.000000X3.000000*%
%ADD32C,3.000000*%
%ADD33RoundRect,0.140000X-0.140000X-0.170000X0.140000X-0.170000X0.140000X0.170000X-0.140000X0.170000X0*%
%ADD34R,3.960000X1.980000*%
%ADD35O,3.960000X1.980000*%
%ADD36RoundRect,0.250000X-0.600000X-0.725000X0.600000X-0.725000X0.600000X0.725000X-0.600000X0.725000X0*%
%ADD37O,1.700000X1.950000*%
%ADD38R,1.500000X2.000000*%
%ADD39R,3.800000X2.000000*%
%ADD40R,1.800000X1.800000*%
%ADD41C,1.800000*%
%ADD42C,2.100000*%
%ADD43RoundRect,0.250000X0.475000X-0.250000X0.475000X0.250000X-0.475000X0.250000X-0.475000X-0.250000X0*%
%ADD44C,1.400000*%
%ADD45O,1.400000X1.400000*%
%ADD46RoundRect,0.250000X-0.750000X0.600000X-0.750000X-0.600000X0.750000X-0.600000X0.750000X0.600000X0*%
%ADD47O,2.000000X1.700000*%
%ADD48RoundRect,0.140000X0.170000X-0.140000X0.170000X0.140000X-0.170000X0.140000X-0.170000X-0.140000X0*%
%ADD49R,0.400000X1.350000*%
%ADD50O,1.050000X1.250000*%
%ADD51O,1.000000X1.900000*%
%ADD52R,0.875000X1.900000*%
%ADD53R,2.900000X1.900000*%
%ADD54RoundRect,0.100000X0.100000X-0.130000X0.100000X0.130000X-0.100000X0.130000X-0.100000X-0.130000X0*%
%ADD55C,2.000000*%
%ADD56RoundRect,0.050000X-0.387500X-0.050000X0.387500X-0.050000X0.387500X0.050000X-0.387500X0.050000X0*%
%ADD57RoundRect,0.050000X-0.050000X-0.387500X0.050000X-0.387500X0.050000X0.387500X-0.050000X0.387500X0*%
%ADD58R,3.200000X3.200000*%
%ADD59RoundRect,0.250000X-0.450000X0.262500X-0.450000X-0.262500X0.450000X-0.262500X0.450000X0.262500X0*%
%ADD60C,0.900000*%
%ADD61R,1.250000X2.500000*%
%ADD62R,1.905000X2.000000*%
%ADD63O,1.905000X2.000000*%
%ADD64RoundRect,0.140000X0.140000X0.170000X-0.140000X0.170000X-0.140000X-0.170000X0.140000X-0.170000X0*%
%ADD65RoundRect,0.250000X-0.325000X-1.100000X0.325000X-1.100000X0.325000X1.100000X-0.325000X1.100000X0*%
%ADD66RoundRect,0.150000X-0.650000X-0.150000X0.650000X-0.150000X0.650000X0.150000X-0.650000X0.150000X0*%
%ADD67RoundRect,0.250000X-1.100000X0.325000X-1.100000X-0.325000X1.100000X-0.325000X1.100000X0.325000X0*%
G04 APERTURE END LIST*
D10*
%TO.C,Y1*%
X107647000Y-127381000D03*
X93472000Y-127381000D03*
%TD*%
D11*
%TO.C,D6*%
X119077000Y-113391750D03*
D12*
X119077000Y-118471750D03*
%TD*%
D13*
%TO.C,C16*%
X101660000Y-100000000D03*
X101660000Y-100960000D03*
%TD*%
D14*
%TO.C,U4*%
X71260000Y-135860000D03*
X71260000Y-168960000D03*
X136260000Y-168960000D03*
X136260000Y-135860000D03*
D15*
X110760000Y-165060000D03*
D16*
X108760000Y-165060000D03*
X106760000Y-165060000D03*
X104760000Y-165060000D03*
X102760000Y-165060000D03*
X100760000Y-165060000D03*
X98760000Y-165060000D03*
X96760000Y-165060000D03*
D17*
X64948800Y-153884400D03*
X64948800Y-144842000D03*
X64948800Y-147890000D03*
X64948800Y-150938000D03*
%TD*%
D18*
%TO.C,C14*%
X98130000Y-168270000D03*
X97490000Y-168270000D03*
%TD*%
D19*
%TO.C,R10*%
X92898000Y-108458000D03*
X93538000Y-108458000D03*
%TD*%
D20*
%TO.C,U5*%
X131318000Y-125903000D03*
D21*
X131318000Y-123363000D03*
X131318000Y-120823000D03*
X131318000Y-118283000D03*
X123698000Y-118283000D03*
X123698000Y-120823000D03*
X123698000Y-123363000D03*
X123698000Y-125903000D03*
%TD*%
D22*
%TO.C,J14*%
X145256000Y-114884000D03*
D23*
X143256000Y-113284000D03*
D24*
X143256000Y-110784000D03*
X143256000Y-108284000D03*
%TD*%
D19*
%TO.C,R13*%
X92898000Y-109474000D03*
X93538000Y-109474000D03*
%TD*%
D25*
%TO.C,J3*%
X111267000Y-90077500D03*
D26*
X111267000Y-83777500D03*
D27*
X106467000Y-87177500D03*
%TD*%
D18*
%TO.C,R14*%
X82340000Y-106560000D03*
X81700000Y-106560000D03*
%TD*%
%TO.C,R16*%
X78790000Y-107710000D03*
X78150000Y-107710000D03*
%TD*%
D28*
%TO.C,ADC*%
X112141000Y-116713000D03*
%TD*%
D29*
%TO.C,GND*%
X138303000Y-94869000D03*
%TD*%
D30*
%TO.C,R7*%
X79502000Y-91501000D03*
X79502000Y-92141000D03*
%TD*%
D31*
%TO.C,J4*%
X68412500Y-80700000D03*
D32*
X72292500Y-80700000D03*
%TD*%
D11*
%TO.C,D5*%
X67560000Y-95780051D03*
D12*
X67560000Y-90700051D03*
%TD*%
D33*
%TO.C,C15*%
X85950000Y-110020000D03*
X86910000Y-110020000D03*
%TD*%
D30*
%TO.C,R8*%
X85471000Y-91628000D03*
X85471000Y-92268000D03*
%TD*%
D18*
%TO.C,R1*%
X60412000Y-139175000D03*
X59772000Y-139175000D03*
%TD*%
D34*
%TO.C,J7*%
X57465500Y-97225000D03*
D35*
X57465500Y-92225000D03*
%TD*%
D22*
%TO.C,J9*%
X82290000Y-80345000D03*
D36*
X83890000Y-78345000D03*
D37*
X86390000Y-78345000D03*
X88890000Y-78345000D03*
%TD*%
D38*
%TO.C,U2*%
X123712000Y-98865500D03*
X121412000Y-98865500D03*
D39*
X121412000Y-105165500D03*
D38*
X119112000Y-98865500D03*
%TD*%
D18*
%TO.C,R2*%
X60012000Y-145868500D03*
X59372000Y-145868500D03*
%TD*%
D34*
%TO.C,J8*%
X57380000Y-108660000D03*
D35*
X57380000Y-103660000D03*
%TD*%
D40*
%TO.C,D3*%
X55325000Y-152150000D03*
D41*
X55325000Y-154690000D03*
%TD*%
D18*
%TO.C,R3*%
X60012000Y-151896000D03*
X59372000Y-151896000D03*
%TD*%
D40*
%TO.C,D1*%
X55325000Y-139170000D03*
D41*
X55325000Y-141710000D03*
%TD*%
D42*
%TO.C,H3*%
X145260000Y-77040000D03*
%TD*%
D40*
%TO.C,D2*%
X55325000Y-145800000D03*
D41*
X55325000Y-148340000D03*
%TD*%
D43*
%TO.C,C6*%
X107647000Y-136139000D03*
X107647000Y-134239000D03*
%TD*%
D44*
%TO.C,R12*%
X126163000Y-130602000D03*
D45*
X128703000Y-130602000D03*
%TD*%
D22*
%TO.C,J12*%
X54975000Y-112970000D03*
D46*
X56975000Y-114570000D03*
D47*
X56975000Y-117070000D03*
%TD*%
D42*
%TO.C,H4*%
X83300000Y-87660000D03*
%TD*%
%TO.C,H1*%
X50800000Y-171200000D03*
%TD*%
D48*
%TO.C,C4*%
X89830000Y-91760000D03*
X89830000Y-90800000D03*
%TD*%
D28*
%TO.C,12V*%
X100584000Y-90551000D03*
%TD*%
D43*
%TO.C,C5*%
X93550000Y-136139000D03*
X93550000Y-134239000D03*
%TD*%
D49*
%TO.C,J1*%
X132431000Y-89425500D03*
X133081000Y-89425500D03*
X133731000Y-89425500D03*
X134381000Y-89425500D03*
X135031000Y-89425500D03*
D50*
X135956000Y-89750500D03*
D51*
X129556000Y-86750500D03*
D50*
X131506000Y-89750500D03*
D52*
X137468500Y-86750500D03*
D51*
X137906000Y-86750500D03*
D52*
X129993500Y-86750500D03*
D53*
X133731000Y-86750500D03*
%TD*%
D54*
%TO.C,R11*%
X100330000Y-121641000D03*
X100330000Y-121001000D03*
%TD*%
D22*
%TO.C,J11*%
X54975000Y-130400000D03*
D46*
X56975000Y-132000000D03*
D47*
X56975000Y-134500000D03*
%TD*%
D55*
%TO.C,GND*%
X96901000Y-87249000D03*
%TD*%
D56*
%TO.C,U1*%
X98872000Y-106910000D03*
X98872000Y-107310000D03*
X98872000Y-107710000D03*
X98872000Y-108110000D03*
X98872000Y-108510000D03*
X98872000Y-108910000D03*
X98872000Y-109310000D03*
X98872000Y-109710000D03*
X98872000Y-110110000D03*
X98872000Y-110510000D03*
X98872000Y-110910000D03*
X98872000Y-111310000D03*
X98872000Y-111710000D03*
X98872000Y-112110000D03*
D57*
X99709500Y-112947500D03*
X100109500Y-112947500D03*
X100509500Y-112947500D03*
X100909500Y-112947500D03*
X101309500Y-112947500D03*
X101709500Y-112947500D03*
X102109500Y-112947500D03*
X102509500Y-112947500D03*
X102909500Y-112947500D03*
X103309500Y-112947500D03*
X103709500Y-112947500D03*
X104109500Y-112947500D03*
X104509500Y-112947500D03*
X104909500Y-112947500D03*
D56*
X105747000Y-112110000D03*
X105747000Y-111710000D03*
X105747000Y-111310000D03*
X105747000Y-110910000D03*
X105747000Y-110510000D03*
X105747000Y-110110000D03*
X105747000Y-109710000D03*
X105747000Y-109310000D03*
X105747000Y-108910000D03*
X105747000Y-108510000D03*
X105747000Y-108110000D03*
X105747000Y-107710000D03*
X105747000Y-107310000D03*
X105747000Y-106910000D03*
D57*
X104909500Y-106072500D03*
X104509500Y-106072500D03*
X104109500Y-106072500D03*
X103709500Y-106072500D03*
X103309500Y-106072500D03*
X102909500Y-106072500D03*
X102509500Y-106072500D03*
X102109500Y-106072500D03*
X101709500Y-106072500D03*
X101309500Y-106072500D03*
X100909500Y-106072500D03*
X100509500Y-106072500D03*
X100109500Y-106072500D03*
X99709500Y-106072500D03*
D58*
X102309500Y-109510000D03*
%TD*%
D59*
%TO.C,R9*%
X104394000Y-100560500D03*
X104394000Y-102385500D03*
%TD*%
D54*
%TO.C,C8*%
X108204000Y-102809000D03*
X108204000Y-102169000D03*
%TD*%
D60*
%TO.C,SW4*%
X118520000Y-86623500D03*
X125320000Y-86623500D03*
D61*
X124420000Y-89373500D03*
X121920000Y-89373500D03*
X119420000Y-89373500D03*
%TD*%
D62*
%TO.C,Q2*%
X73370000Y-109165000D03*
D63*
X70830000Y-109165000D03*
X68290000Y-109165000D03*
%TD*%
D48*
%TO.C,C11*%
X102270000Y-118120000D03*
X102270000Y-117160000D03*
%TD*%
D64*
%TO.C,C10*%
X108430000Y-110490000D03*
X107470000Y-110490000D03*
%TD*%
D11*
%TO.C,D4*%
X72650000Y-95090000D03*
D12*
X72650000Y-90010000D03*
%TD*%
D54*
%TO.C,C12*%
X109474000Y-102809000D03*
X109474000Y-102169000D03*
%TD*%
D34*
%TO.C,J5*%
X57710000Y-85725000D03*
D35*
X57710000Y-80725000D03*
%TD*%
D30*
%TO.C,R4*%
X63207500Y-115504000D03*
X63207500Y-116144000D03*
%TD*%
D33*
%TO.C,C13*%
X95010000Y-104560000D03*
X95970000Y-104560000D03*
%TD*%
D42*
%TO.C,H2*%
X144770000Y-171640000D03*
%TD*%
D11*
%TO.C,D7*%
X119077000Y-124059750D03*
D12*
X119077000Y-129139750D03*
%TD*%
D22*
%TO.C,J13*%
X145747000Y-166152000D03*
D23*
X143747000Y-164552000D03*
D24*
X143747000Y-162052000D03*
X143747000Y-159552000D03*
%TD*%
D54*
%TO.C,R6*%
X63037500Y-131150000D03*
X63037500Y-130510000D03*
%TD*%
D65*
%TO.C,C2*%
X122477000Y-94649500D03*
X125427000Y-94649500D03*
%TD*%
D66*
%TO.C,U3*%
X85554000Y-94742000D03*
X85554000Y-96012000D03*
X85554000Y-97282000D03*
X85554000Y-98552000D03*
X92754000Y-98552000D03*
X92754000Y-97282000D03*
X92754000Y-96012000D03*
X92754000Y-94742000D03*
%TD*%
D59*
%TO.C,R15*%
X106553000Y-100560500D03*
X106553000Y-102385500D03*
%TD*%
D64*
%TO.C,C9*%
X108660000Y-105500000D03*
X107700000Y-105500000D03*
%TD*%
D22*
%TO.C,J10*%
X54975000Y-121630000D03*
D46*
X56975000Y-123230000D03*
D47*
X56975000Y-125730000D03*
%TD*%
D34*
%TO.C,J6*%
X140208000Y-119460000D03*
D35*
X140208000Y-124460000D03*
%TD*%
D54*
%TO.C,R5*%
X63067500Y-122280000D03*
X63067500Y-121640000D03*
%TD*%
D13*
%TO.C,C1*%
X99230000Y-98241500D03*
X99230000Y-99201500D03*
%TD*%
D22*
%TO.C,J2*%
X94870000Y-80345000D03*
D36*
X96470000Y-78345000D03*
D37*
X98970000Y-78345000D03*
X101470000Y-78345000D03*
%TD*%
D48*
%TO.C,C7*%
X103632000Y-116939000D03*
X103632000Y-115979000D03*
%TD*%
D62*
%TO.C,Q1*%
X73690000Y-101720000D03*
D63*
X71150000Y-101720000D03*
X68610000Y-101720000D03*
%TD*%
D67*
%TO.C,C3*%
X113920000Y-95700000D03*
X113920000Y-98650000D03*
%TD*%
M02*
