%TF.GenerationSoftware,KiCad,Pcbnew,(6.0.7-1)-1*%
%TF.CreationDate,2022-10-11T16:14:11-05:00*%
%TF.ProjectId,Refill_Dispensary,52656669-6c6c-45f4-9469-7370656e7361,rev?*%
%TF.SameCoordinates,Original*%
%TF.FileFunction,Paste,Top*%
%TF.FilePolarity,Positive*%
%FSLAX46Y46*%
G04 Gerber Fmt 4.6, Leading zero omitted, Abs format (unit mm)*
G04 Created by KiCad (PCBNEW (6.0.7-1)-1) date 2022-10-11 16:14:11*
%MOMM*%
%LPD*%
G01*
G04 APERTURE LIST*
G04 Aperture macros list*
%AMRoundRect*
0 Rectangle with rounded corners*
0 $1 Rounding radius*
0 $2 $3 $4 $5 $6 $7 $8 $9 X,Y pos of 4 corners*
0 Add a 4 corners polygon primitive as box body*
4,1,4,$2,$3,$4,$5,$6,$7,$8,$9,$2,$3,0*
0 Add four circle primitives for the rounded corners*
1,1,$1+$1,$2,$3*
1,1,$1+$1,$4,$5*
1,1,$1+$1,$6,$7*
1,1,$1+$1,$8,$9*
0 Add four rect primitives between the rounded corners*
20,1,$1+$1,$2,$3,$4,$5,0*
20,1,$1+$1,$4,$5,$6,$7,0*
20,1,$1+$1,$6,$7,$8,$9,0*
20,1,$1+$1,$8,$9,$2,$3,0*%
G04 Aperture macros list end*
%ADD10R,7.175000X5.600000*%
%ADD11RoundRect,0.140000X-0.170000X0.140000X-0.170000X-0.140000X0.170000X-0.140000X0.170000X0.140000X0*%
%ADD12RoundRect,0.079500X0.079500X0.100500X-0.079500X0.100500X-0.079500X-0.100500X0.079500X-0.100500X0*%
%ADD13RoundRect,0.079500X-0.079500X-0.100500X0.079500X-0.100500X0.079500X0.100500X-0.079500X0.100500X0*%
%ADD14RoundRect,0.079500X-0.100500X0.079500X-0.100500X-0.079500X0.100500X-0.079500X0.100500X0.079500X0*%
%ADD15RoundRect,0.140000X-0.140000X-0.170000X0.140000X-0.170000X0.140000X0.170000X-0.140000X0.170000X0*%
%ADD16R,1.500000X2.000000*%
%ADD17R,3.800000X2.000000*%
%ADD18RoundRect,0.250000X0.475000X-0.250000X0.475000X0.250000X-0.475000X0.250000X-0.475000X-0.250000X0*%
%ADD19RoundRect,0.140000X0.170000X-0.140000X0.170000X0.140000X-0.170000X0.140000X-0.170000X-0.140000X0*%
%ADD20R,0.300000X0.850000*%
%ADD21R,0.400000X1.350000*%
%ADD22R,2.900000X1.900000*%
%ADD23RoundRect,0.079500X0.100500X-0.079500X0.100500X0.079500X-0.100500X0.079500X-0.100500X-0.079500X0*%
%ADD24RoundRect,0.249999X-0.395001X-0.395001X0.395001X-0.395001X0.395001X0.395001X-0.395001X0.395001X0*%
%ADD25RoundRect,0.050000X-0.387500X-0.050000X0.387500X-0.050000X0.387500X0.050000X-0.387500X0.050000X0*%
%ADD26RoundRect,0.050000X-0.050000X-0.387500X0.050000X-0.387500X0.050000X0.387500X-0.050000X0.387500X0*%
%ADD27RoundRect,0.250000X-0.450000X0.262500X-0.450000X-0.262500X0.450000X-0.262500X0.450000X0.262500X0*%
%ADD28R,1.250000X2.500000*%
%ADD29RoundRect,0.140000X0.140000X0.170000X-0.140000X0.170000X-0.140000X-0.170000X0.140000X-0.170000X0*%
%ADD30RoundRect,0.250000X-0.325000X-1.100000X0.325000X-1.100000X0.325000X1.100000X-0.325000X1.100000X0*%
%ADD31RoundRect,0.150000X-0.650000X-0.150000X0.650000X-0.150000X0.650000X0.150000X-0.650000X0.150000X0*%
%ADD32RoundRect,0.250000X-1.100000X0.325000X-1.100000X-0.325000X1.100000X-0.325000X1.100000X0.325000X0*%
G04 APERTURE END LIST*
D10*
%TO.C,Y1*%
X107647000Y-127381000D03*
X93472000Y-127381000D03*
%TD*%
D11*
%TO.C,C16*%
X101660000Y-100000000D03*
X101660000Y-100960000D03*
%TD*%
D12*
%TO.C,C14*%
X97465000Y-168270000D03*
X98155000Y-168270000D03*
%TD*%
D13*
%TO.C,R10*%
X93563000Y-108458000D03*
X92873000Y-108458000D03*
%TD*%
%TO.C,R13*%
X92873000Y-109474000D03*
X93563000Y-109474000D03*
%TD*%
D12*
%TO.C,R14*%
X81675000Y-106560000D03*
X82365000Y-106560000D03*
%TD*%
%TO.C,R16*%
X78125000Y-107710000D03*
X78815000Y-107710000D03*
%TD*%
D14*
%TO.C,R7*%
X79502000Y-92166000D03*
X79502000Y-91476000D03*
%TD*%
D15*
%TO.C,C15*%
X85950000Y-110020000D03*
X86910000Y-110020000D03*
%TD*%
D14*
%TO.C,R8*%
X85471000Y-91603000D03*
X85471000Y-92293000D03*
%TD*%
D12*
%TO.C,R1*%
X59747000Y-139175000D03*
X60437000Y-139175000D03*
%TD*%
D16*
%TO.C,U2*%
X123712000Y-98865500D03*
X121412000Y-98865500D03*
D17*
X121412000Y-105165500D03*
D16*
X119112000Y-98865500D03*
%TD*%
D12*
%TO.C,R2*%
X60037000Y-145868500D03*
X59347000Y-145868500D03*
%TD*%
%TO.C,R3*%
X60037000Y-151896000D03*
X59347000Y-151896000D03*
%TD*%
D18*
%TO.C,C6*%
X107647000Y-136139000D03*
X107647000Y-134239000D03*
%TD*%
D19*
%TO.C,C4*%
X89830000Y-91760000D03*
X89830000Y-90800000D03*
%TD*%
D18*
%TO.C,C5*%
X93550000Y-136139000D03*
X93550000Y-134239000D03*
%TD*%
D20*
%TO.C,J1*%
X137231000Y-86750500D03*
X130231000Y-86750500D03*
D21*
X132431000Y-89425500D03*
X133081000Y-89425500D03*
X133731000Y-89425500D03*
X134381000Y-89425500D03*
X135031000Y-89425500D03*
D22*
X133731000Y-86750500D03*
%TD*%
D23*
%TO.C,R11*%
X100330000Y-121666000D03*
X100330000Y-120976000D03*
%TD*%
D24*
%TO.C,U1*%
X101509500Y-110310000D03*
X103109500Y-108710000D03*
X101509500Y-108710000D03*
X103109500Y-110310000D03*
D25*
X98872000Y-106910000D03*
X98872000Y-107310000D03*
X98872000Y-107710000D03*
X98872000Y-108110000D03*
X98872000Y-108510000D03*
X98872000Y-108910000D03*
X98872000Y-109310000D03*
X98872000Y-109710000D03*
X98872000Y-110110000D03*
X98872000Y-110510000D03*
X98872000Y-110910000D03*
X98872000Y-111310000D03*
X98872000Y-111710000D03*
X98872000Y-112110000D03*
D26*
X99709500Y-112947500D03*
X100109500Y-112947500D03*
X100509500Y-112947500D03*
X100909500Y-112947500D03*
X101309500Y-112947500D03*
X101709500Y-112947500D03*
X102109500Y-112947500D03*
X102509500Y-112947500D03*
X102909500Y-112947500D03*
X103309500Y-112947500D03*
X103709500Y-112947500D03*
X104109500Y-112947500D03*
X104509500Y-112947500D03*
X104909500Y-112947500D03*
D25*
X105747000Y-112110000D03*
X105747000Y-111710000D03*
X105747000Y-111310000D03*
X105747000Y-110910000D03*
X105747000Y-110510000D03*
X105747000Y-110110000D03*
X105747000Y-109710000D03*
X105747000Y-109310000D03*
X105747000Y-108910000D03*
X105747000Y-108510000D03*
X105747000Y-108110000D03*
X105747000Y-107710000D03*
X105747000Y-107310000D03*
X105747000Y-106910000D03*
D26*
X104909500Y-106072500D03*
X104509500Y-106072500D03*
X104109500Y-106072500D03*
X103709500Y-106072500D03*
X103309500Y-106072500D03*
X102909500Y-106072500D03*
X102509500Y-106072500D03*
X102109500Y-106072500D03*
X101709500Y-106072500D03*
X101309500Y-106072500D03*
X100909500Y-106072500D03*
X100509500Y-106072500D03*
X100109500Y-106072500D03*
X99709500Y-106072500D03*
%TD*%
D27*
%TO.C,R9*%
X104394000Y-100560500D03*
X104394000Y-102385500D03*
%TD*%
D23*
%TO.C,C8*%
X108204000Y-102144000D03*
X108204000Y-102834000D03*
%TD*%
D28*
%TO.C,SW4*%
X124420000Y-89373500D03*
X121920000Y-89373500D03*
X119420000Y-89373500D03*
%TD*%
D19*
%TO.C,C11*%
X102270000Y-118120000D03*
X102270000Y-117160000D03*
%TD*%
D29*
%TO.C,C10*%
X108430000Y-110490000D03*
X107470000Y-110490000D03*
%TD*%
D23*
%TO.C,C12*%
X109474000Y-102834000D03*
X109474000Y-102144000D03*
%TD*%
D14*
%TO.C,R4*%
X63207500Y-116169000D03*
X63207500Y-115479000D03*
%TD*%
D15*
%TO.C,C13*%
X95010000Y-104560000D03*
X95970000Y-104560000D03*
%TD*%
D23*
%TO.C,R6*%
X63037500Y-130485000D03*
X63037500Y-131175000D03*
%TD*%
D30*
%TO.C,C2*%
X122477000Y-94649500D03*
X125427000Y-94649500D03*
%TD*%
D31*
%TO.C,U3*%
X85554000Y-94742000D03*
X85554000Y-96012000D03*
X85554000Y-97282000D03*
X85554000Y-98552000D03*
X92754000Y-98552000D03*
X92754000Y-97282000D03*
X92754000Y-96012000D03*
X92754000Y-94742000D03*
%TD*%
D27*
%TO.C,R15*%
X106553000Y-100560500D03*
X106553000Y-102385500D03*
%TD*%
D29*
%TO.C,C9*%
X108660000Y-105500000D03*
X107700000Y-105500000D03*
%TD*%
D23*
%TO.C,R5*%
X63067500Y-122305000D03*
X63067500Y-121615000D03*
%TD*%
D11*
%TO.C,C1*%
X99230000Y-98241500D03*
X99230000Y-99201500D03*
%TD*%
D19*
%TO.C,C7*%
X103632000Y-116939000D03*
X103632000Y-115979000D03*
%TD*%
D32*
%TO.C,C3*%
X113920000Y-95700000D03*
X113920000Y-98650000D03*
%TD*%
M02*
